<svg xmlns="http://www.w3.org/2000/svg" viewBox="0 0 890 488" width="890" height="488" font-family="-apple-system, BlinkMacSystemFont, 'Segoe UI', Roboto, Helvetica, Arial, sans-serif">
<defs>
<marker id="arrow" viewBox="0 0 10 10" refX="9" refY="5" markerWidth="7" markerHeight="7" orient="auto-start-reverse"><path d="M 0 0 L 10 5 L 0 10 z" fill="#5f6368"/></marker>
<marker id="arrow-skip" viewBox="0 0 10 10" refX="9" refY="5" markerWidth="7" markerHeight="7" orient="auto-start-reverse"><path d="M 0 0 L 10 5 L 0 10 z" fill="#9334e6"/></marker>
</defs>
<rect x="0" y="0" width="890" height="488" fill="#ffffff"/>
<text x="445.0" y="40" text-anchor="middle" font-family="-apple-system, BlinkMacSystemFont, 'Segoe UI', Roboto, Helvetica, Arial, sans-serif" font-size="19" font-weight="700" fill="#202124">FM Component Structure</text>
<rect x="24.0" y="164.0" width="242.0" height="198.0" rx="12" fill="none" stroke="#c0c4c8" stroke-width="1.3" stroke-dasharray="6 5"/>
<text x="36.0" y="182.0" font-family="-apple-system, BlinkMacSystemFont, 'Segoe UI', Roboto, Helvetica, Arial, sans-serif" font-size="12" font-weight="600" fill="#80868b">Order-1 (Linear)</text>
<rect x="624.0" y="164.0" width="242.0" height="198.0" rx="12" fill="none" stroke="#c0c4c8" stroke-width="1.3" stroke-dasharray="6 5"/>
<text x="636.0" y="182.0" font-family="-apple-system, BlinkMacSystemFont, 'Segoe UI', Roboto, Helvetica, Arial, sans-serif" font-size="12" font-weight="600" fill="#80868b">Order-2 (Feature Interactions)</text>
<path d="M 445.0 142.0 L 445.0 155.0 Q 445.0 165.0 435.0 165.0 L 155.0 165.0 Q 145.0 165.0 145.0 175.0 L 145.0 186.0" fill="none" stroke="#5f6368" stroke-width="1.6" marker-end="url(#arrow)"/>
<line x1="145.0" y1="244.0" x2="145.0" y2="288.0" stroke="#5f6368" stroke-width="1.6" marker-end="url(#arrow)"/>
<path d="M 445.0 142.0 L 445.0 155.0 Q 445.0 165.0 455.0 165.0 L 735.0 165.0 Q 745.0 165.0 745.0 175.0 L 745.0 186.0" fill="none" stroke="#5f6368" stroke-width="1.6" marker-end="url(#arrow)"/>
<line x1="745.0" y1="244.0" x2="745.0" y2="288.0" stroke="#5f6368" stroke-width="1.6" marker-end="url(#arrow)"/>
<path d="M 145.0 346.0 L 145.0 359.0 Q 145.0 369.0 155.0 369.0 L 435.0 369.0 Q 445.0 369.0 445.0 379.0 L 445.0 390.0" fill="none" stroke="#5f6368" stroke-width="1.6" marker-end="url(#arrow)"/>
<text x="295.0" y="363.0" text-anchor="middle" font-family="-apple-system, BlinkMacSystemFont, 'Segoe UI', Roboto, Helvetica, Arial, sans-serif" font-size="11" fill="#5f6368">order-1</text>
<path d="M 745.0 346.0 L 745.0 359.0 Q 745.0 369.0 735.0 369.0 L 455.0 369.0 Q 445.0 369.0 445.0 379.0 L 445.0 390.0" fill="none" stroke="#5f6368" stroke-width="1.6" marker-end="url(#arrow)"/>
<text x="595.0" y="363.0" text-anchor="middle" font-family="-apple-system, BlinkMacSystemFont, 'Segoe UI', Roboto, Helvetica, Arial, sans-serif" font-size="11" fill="#5f6368">order-2</text>
<rect x="340.0" y="86.0" width="210" height="56" rx="8" fill="#eceff1" stroke="#607d8b" stroke-width="1.6"/>
<text x="445.0" y="109.0" text-anchor="middle" dominant-baseline="middle" font-family="-apple-system, BlinkMacSystemFont, 'Segoe UI', Roboto, Helvetica, Arial, sans-serif" font-size="14" font-weight="500" fill="#263238">Sparse Feature Fields</text>
<text x="445.0" y="124.0" text-anchor="middle" dominant-baseline="middle" font-family="-apple-system, BlinkMacSystemFont, 'Segoe UI', Roboto, Helvetica, Arial, sans-serif" font-size="11" fill="#263238" opacity="0.75">x_1 ... x_m</text>
<rect x="40.0" y="188.0" width="210" height="56" rx="8" fill="#e8f0fe" stroke="#4285f4" stroke-width="1.6"/>
<text x="145.0" y="216.0" text-anchor="middle" dominant-baseline="middle" font-family="-apple-system, BlinkMacSystemFont, 'Segoe UI', Roboto, Helvetica, Arial, sans-serif" font-size="14" font-weight="500" fill="#1a3a7a">Order-1 Weights (w_i)</text>
<rect x="40.0" y="290.0" width="210" height="56" rx="8" fill="#ffffff" stroke="#9aa0a6" stroke-width="1.6"/>
<text x="145.0" y="313.0" text-anchor="middle" dominant-baseline="middle" font-family="-apple-system, BlinkMacSystemFont, 'Segoe UI', Roboto, Helvetica, Arial, sans-serif" font-size="14" font-weight="500" fill="#3c4043">Addition Unit</text>
<text x="145.0" y="328.0" text-anchor="middle" dominant-baseline="middle" font-family="-apple-system, BlinkMacSystemFont, 'Segoe UI', Roboto, Helvetica, Arial, sans-serif" font-size="11" fill="#3c4043" opacity="0.75">Σ w_i x_i</text>
<rect x="640.0" y="188.0" width="210" height="56" rx="8" fill="#e0f7f5" stroke="#12a4a4" stroke-width="1.6"/>
<text x="745.0" y="211.0" text-anchor="middle" dominant-baseline="middle" font-family="-apple-system, BlinkMacSystemFont, 'Segoe UI', Roboto, Helvetica, Arial, sans-serif" font-size="14" font-weight="500" fill="#0a5a5a">Feature Embeddings</text>
<text x="745.0" y="226.0" text-anchor="middle" dominant-baseline="middle" font-family="-apple-system, BlinkMacSystemFont, 'Segoe UI', Roboto, Helvetica, Arial, sans-serif" font-size="11" fill="#0a5a5a" opacity="0.75">v_1 ... v_m</text>
<rect x="640.0" y="290.0" width="210" height="56" rx="8" fill="#f3e8fd" stroke="#9334e6" stroke-width="1.6"/>
<text x="745.0" y="313.0" text-anchor="middle" dominant-baseline="middle" font-family="-apple-system, BlinkMacSystemFont, 'Segoe UI', Roboto, Helvetica, Arial, sans-serif" font-size="14" font-weight="500" fill="#4a1673">Pairwise Inner Product</text>
<text x="745.0" y="328.0" text-anchor="middle" dominant-baseline="middle" font-family="-apple-system, BlinkMacSystemFont, 'Segoe UI', Roboto, Helvetica, Arial, sans-serif" font-size="11" fill="#4a1673" opacity="0.75">Σ &lt;v_i, v_j&gt;</text>
<rect x="340.0" y="392.0" width="210" height="56" rx="8" fill="#eceff1" stroke="#607d8b" stroke-width="1.6"/>
<text x="445.0" y="415.0" text-anchor="middle" dominant-baseline="middle" font-family="-apple-system, BlinkMacSystemFont, 'Segoe UI', Roboto, Helvetica, Arial, sans-serif" font-size="14" font-weight="500" fill="#263238">FM Prediction  y_FM</text>
<text x="445.0" y="430.0" text-anchor="middle" dominant-baseline="middle" font-family="-apple-system, BlinkMacSystemFont, 'Segoe UI', Roboto, Helvetica, Arial, sans-serif" font-size="11" fill="#263238" opacity="0.75">w_0 + order-1 + order-2</text>
</svg>